<svg width="160" height="51" viewBox="0 0 160 51" fill="none" xmlns="http://www.w3.org/2000/svg">
<g clip-path="url(#clip0_1379_18)">
<path d="M97.3187 18.5356C88.6647 18.5356 87.5339 25.8086 87.5339 29.5863C87.5339 33.3639 89.5614 39.9218 97.3187 39.9218C105.076 39.9218 107.098 33.3639 107.098 29.5863C107.098 25.8086 105.973 18.5356 97.3187 18.5356ZM98.5295 38.4529C95.7139 38.8255 93.9591 33.9501 93.4065 29.7454C92.8554 25.5406 93.1909 20.3886 96.1079 20.0031C99.0235 19.6176 100.678 24.5059 101.231 28.7107C101.782 32.9154 101.345 38.0803 98.5295 38.4529Z" fill="#305858"/>
<path d="M118.061 18.5356C109.407 18.5356 108.357 25.8086 108.357 29.5863C108.357 33.3639 110.302 39.9218 118.061 39.9218C125.819 39.9218 127.686 33.3639 127.686 29.5863C127.686 25.8086 126.715 18.5356 118.061 18.5356ZM119.271 38.4529C116.456 38.8255 114.701 33.9501 114.148 29.7454C113.597 25.5406 113.933 20.3886 116.85 20.0031C119.765 19.6176 121.42 24.5059 121.973 28.7107C122.524 32.9154 122.087 38.0803 119.271 38.4529Z" fill="#305858"/>
<path d="M143.493 31.2602C147.825 30.1237 145.62 38.0645 150.698 38.6965C154.707 39.1952 156.043 36.7045 156.043 35.1611C156.043 33.6176 154.664 32.7191 149.798 31.2473C148.734 30.9262 141.788 29.5204 141.788 24.2279C141.788 19.2637 147.935 18.5356 150.125 18.5356C159.607 18.5356 161.456 25.8961 156.672 25.9992C152.741 26.0838 155.895 19.9243 149.617 19.9243C148.762 19.9243 145.259 20.2998 145.466 22.7633C145.633 24.7625 149.354 25.8359 150.514 26.2486C153.592 27.3478 160.001 28.1589 160.001 33.6864C160.001 38.1448 155.033 40.8261 150.355 40.4062C140.99 39.5635 140.782 31.971 143.494 31.2587L143.493 31.2602Z" fill="#305858"/>
<path d="M88.5933 38.0245V38.0173C88.5219 38.0159 88.432 38.0173 88.3649 38.0173C87.7538 38.0173 86.8328 37.7164 85.2608 35.4951C83.516 33.0301 83.0591 29.4158 80.005 26.7703C79.0983 25.985 77.9275 25.4748 77.3235 25.4748C79.6652 25.4748 83.5003 24.2323 85.3236 21.3905C85.435 21.2142 85.5349 21.0322 85.6277 20.8473C85.6649 20.7742 85.7077 20.7055 85.742 20.6324C86.1418 19.7625 86.3502 18.8152 86.3502 17.8436C86.3502 16.6999 86.1161 15.671 85.6477 14.7595C85.1794 13.8466 84.5797 13.1115 83.8473 12.554C83.1148 11.9951 82.2467 11.5322 81.2429 11.1653C80.2392 10.797 79.2454 10.5419 78.2616 10.3986C77.2779 10.2553 76.2641 10.1851 75.2189 10.1851H63.1881C62.2301 10.1851 62.1387 11.5909 63.121 11.5909C64.9201 11.5909 65.2799 12.3748 65.2799 14.1189V32.3021C65.2799 34.6581 65.0429 36.2001 64.5674 36.9282C64.1848 37.5157 64.309 37.8654 63.1767 37.9801C62.3657 37.9801 62.1958 39.4103 63.3466 39.4103H73.4656C74.5978 39.4103 74.565 37.9743 73.6112 37.9743C72.5061 37.9743 72.072 37.5329 71.678 36.9267C71.2025 36.1987 70.9655 34.6567 70.9655 32.3007V28.3296C70.9655 27.785 71.1782 26.1369 72.6846 26.1369C73.6955 26.1369 74.8206 27.3063 75.2247 28.298L77.9104 34.982C80.0835 40.3031 82.3438 39.4089 85.4079 39.4089H88.4248C89.6842 39.4089 89.6228 38.0259 88.5962 38.0259L88.5933 38.0245ZM73.12 24.4817H72.5304C71.6651 24.4817 70.9626 23.778 70.9626 22.9081V16.1267C70.9626 15.4861 70.9698 15.0031 70.9826 14.6764C70.9969 14.3497 71.0397 13.9785 71.1154 13.5629C71.1896 13.1473 71.2982 12.8406 71.4409 12.6443C71.5837 12.4465 71.7865 12.2487 72.052 12.0524C72.3162 11.8546 72.6517 11.7228 73.0601 11.6554C73.467 11.5866 73.9625 11.5537 74.545 11.5537C79.2811 11.5537 80.8874 15.863 80.8017 17.8249C80.5047 24.688 74.3494 24.5605 73.12 24.4831V24.4817Z" fill="#305858"/>
<path d="M141.998 33.506C141.59 36.3034 139.672 37.3238 138.443 37.3238C135.797 37.3238 136.151 34.4719 136.151 33.0589V21.5453C136.151 21.2974 136.351 21.0953 136.599 21.0953H139.873C140.914 21.0953 141.051 19.4802 139.873 19.4802H136.781C136.432 19.4802 136.151 19.1965 136.151 18.8482V15.4518C136.151 14.5876 134.84 14.43 134.356 15.2927L134.339 15.2855C132.731 17.7777 129.496 19.1019 128.074 19.668V19.6708C127.416 19.946 127.698 20.8488 128.165 20.8488H129.163C129.99 20.8488 130.66 21.521 130.66 22.3507V33.9373C130.66 34.7657 131.135 39.922 136.701 39.922C141.494 39.922 143.142 35.2945 143.129 33.6794C143.122 32.8066 142.191 32.1904 141.999 33.5074L141.998 33.506Z" fill="#305858"/>
<path d="M45.2334 25.4189C42.8903 26.6428 39.1823 26.3246 35.2329 25.3573C35.2643 24.9933 35.2815 24.6264 35.2815 24.2567C35.2815 17.8751 30.5026 12.6012 24.3501 11.8274C24.5871 10.2338 25.9435 9.00846 27.5969 9.00846H32.6371C35.2029 9.00846 37.2818 6.92043 37.2818 4.34658V0.262242C37.2818 0.0544426 37.052 -0.0716703 36.882 0.045844C36.4251 0.362559 35.5556 0.786758 34.1749 0.786758H34.1763H28.4822C25.6166 0.786758 23.2921 3.11841 23.2921 5.99608V9.66625C23.2921 9.94571 23.0665 10.1721 22.788 10.1721C22.5096 10.1721 22.284 9.94571 22.284 9.66625V5.99608C22.284 3.11985 19.961 0.786758 17.0939 0.786758H11.3998H11.4012C10.0205 0.786758 9.15094 0.362559 8.69404 0.045844C8.52413 -0.0716703 8.29425 0.0558757 8.29425 0.262242V4.34658C8.29425 6.92187 10.3746 9.00846 12.9389 9.00846H17.9791C19.6326 9.00846 20.989 10.2338 21.226 11.8274C15.0735 12.6027 10.2946 17.8751 10.2946 24.2567C10.2946 24.6235 10.3118 24.989 10.3432 25.3501C6.38526 26.3218 2.66579 26.6442 0.318452 25.4175C0.171386 25.3401 -0.00280762 25.439 -0.00280762 25.6066V28.9071C-0.00280762 29.2568 0.217077 29.5778 0.551186 29.6767C4.14072 30.7472 8.35707 29.6881 11.5097 28.8927C12.7162 28.5889 13.7728 28.5273 14.6923 28.6219C14.8736 28.6405 14.9093 28.8856 14.7451 28.9658C12.1308 30.2413 10.316 31.7862 8.65835 33.1992C6.74221 34.833 5.05025 36.2689 2.35024 37.2119C2.20746 37.2621 2.13321 37.4269 2.19746 37.5644C2.64151 38.5017 3.15267 39.3988 3.71523 40.2601C3.84231 40.4536 4.09361 40.5324 4.30778 40.4464C7.23909 39.2799 9.17521 37.6361 11.0557 36.0339C12.7605 34.5807 14.3939 33.1892 16.8226 32.09C16.9868 32.0155 17.141 32.2061 17.0425 32.3566C15.8374 34.2096 15.0892 36.097 14.3596 37.9428C13.3402 40.5252 12.285 43.1908 9.91911 46.1444C9.78775 46.3078 9.81631 46.5543 9.9905 46.6732C10.7572 47.1978 11.5568 47.6778 12.3878 48.1078C12.6805 48.2597 13.0475 48.1723 13.2474 47.91C15.6561 44.7457 16.7912 41.8795 17.805 39.3128C18.6074 37.2807 19.3356 35.4607 20.5963 33.7481C20.6991 33.6091 20.9233 33.685 20.9233 33.8584V50.0826C20.9233 50.3878 21.1703 50.6358 21.4745 50.6358H24.0774C24.3815 50.6358 24.6285 50.3878 24.6285 50.0826V33.8584C24.6285 33.685 24.8527 33.6091 24.9555 33.7481C26.2162 35.4621 26.9444 37.2807 27.7469 39.3128C28.7606 41.8795 29.8957 44.7443 32.3045 47.91C32.5044 48.1723 32.8713 48.2597 33.164 48.1078C33.995 47.6793 34.7932 47.1992 35.5613 46.6732C35.7341 46.5543 35.7641 46.3092 35.6327 46.1444C33.2668 43.1908 32.2117 40.5267 31.1922 37.9428C30.464 36.097 29.7158 34.2096 28.5093 32.3566C28.4108 32.2061 28.565 32.0155 28.7292 32.09C31.1579 33.1892 32.7914 34.5807 34.4962 36.0339C36.3766 37.6361 38.3127 39.2813 41.244 40.4464C41.4582 40.531 41.7095 40.4536 41.8366 40.2601C42.3991 39.3988 42.9103 38.5017 43.3544 37.5644C43.42 37.4269 43.3458 37.2621 43.2016 37.2119C40.5001 36.2689 38.8082 34.833 36.8935 33.1992C35.2358 31.7862 33.421 30.2413 30.8067 28.9658C30.6425 28.8856 30.6782 28.6405 30.8595 28.6219C31.779 28.5273 32.8356 28.5889 34.0421 28.8927C37.1947 29.6881 41.4097 30.7486 45.0006 29.6767C45.3333 29.5778 45.5546 29.2568 45.5546 28.9071V25.6066C45.5546 25.4404 45.3804 25.3415 45.2334 25.4175V25.4189ZM30.3127 24.9388C26.8488 25.3444 24.4529 27.2834 23.1464 29.0232C22.9594 29.2711 22.5939 29.2711 22.4068 29.0232C21.1032 27.2891 18.7173 25.3544 15.2663 24.9417C15.2463 24.7153 15.2363 24.4874 15.2363 24.2581C15.2363 21.2242 17.0254 18.6088 19.5969 17.3978H19.5769C20.9904 16.7214 21.9799 15.6452 22.4596 15.0404C22.6296 14.8254 22.9508 14.8254 23.1207 15.0404C23.6005 15.6466 24.59 16.7228 26.0035 17.3993H25.9835C28.555 18.6102 30.3426 21.2257 30.3426 24.2595C30.3426 24.4874 30.3326 24.7153 30.3127 24.9403V24.9388Z" fill="#305858"/>
</g>
<defs>
<clipPath id="clip0_1379_18">
<rect width="160" height="50.6329" fill="white"/>
</clipPath>
</defs>
</svg>
